<?xml version="1.0" encoding="UTF-8" standalone="no"?><svg xmlns="http://www.w3.org/2000/svg" xmlns:xlink="http://www.w3.org/1999/xlink" fill="#000000" height="260.9" preserveAspectRatio="xMidYMid meet" version="1" viewBox="0.0 0.0 500.1 260.9" width="500.1" zoomAndPan="magnify"><defs><clipPath id="a"><path d="M 0 0 L 500.101562 0 L 500.101562 260.859375 L 0 260.859375 Z M 0 0"/></clipPath></defs><g><g clip-path="url(#a)" id="change1_1"><path d="M 2.417969 245.160156 L 61.71875 179.757812 C 64.917969 176.257812 70.117188 175.660156 74.019531 178.457031 C 83.519531 185.257812 100.617188 195.957031 106.417969 189.757812 C 114.519531 181.058594 112.816406 169.359375 123.316406 165.359375 C 133.816406 161.359375 133.816406 174.058594 137.816406 173.457031 C 141.816406 172.859375 138.417969 164.160156 148.917969 158.359375 C 159.417969 152.558594 157.019531 139.160156 169.316406 141.460938 C 181.519531 143.757812 175.71875 129.257812 180.417969 122.257812 C 185.117188 115.257812 208.316406 100.160156 213.617188 97.859375 C 218.816406 95.558594 211.917969 75.757812 219.417969 69.960938 C 227.019531 64.160156 244.417969 84.460938 251.417969 78.058594 C 258.417969 71.660156 270.019531 28.660156 278.71875 21.660156 C 287.417969 14.660156 286.816406 26.859375 291.519531 30.960938 C 296.21875 35.058594 312.417969 37.359375 317.117188 29.257812 C 321.816406 21.160156 313.617188 3.058594 324.117188 0.160156 C 334.617188 -2.742188 332.816406 34.460938 347.917969 32.757812 C 363.019531 31.058594 359.019531 46.160156 372.316406 51.359375 C 385.617188 56.558594 441.519531 75.160156 440.917969 81.058594 C 440.316406 86.859375 457.816406 86.859375 458.316406 93.257812 C 458.917969 99.660156 401.316406 95.558594 417.019531 100.257812 C 432.71875 104.960938 451.316406 99.660156 448.417969 111.359375 C 445.519531 123.058594 467.617188 121.859375 468.816406 131.757812 C 470.019531 141.660156 448.417969 148.058594 429.316406 141.660156 C 410.117188 135.257812 399.117188 136.460938 399.117188 143.960938 C 399.117188 151.558594 434.019531 146.257812 439.21875 153.257812 C 444.417969 160.257812 458.417969 152.058594 464.816406 157.359375 C 471.21875 162.558594 485.21875 145.160156 493.316406 150.359375 C 501.417969 155.558594 507.816406 174.757812 478.21875 174.757812 C 448.617188 174.757812 281.019531 204.457031 262.417969 209.660156 C 243.816406 214.859375 221.117188 213.160156 195.519531 218.957031 C 169.917969 224.757812 85.019531 248.660156 55.316406 255.558594 C 40.117188 259.160156 22.816406 260.457031 9.71875 260.859375 C 1.417969 260.957031 -3.082031 251.257812 2.417969 245.160156" fill="#2d8bba"/></g></g></svg>