<?xml version="1.0" encoding="UTF-8" standalone="no"?><svg xmlns="http://www.w3.org/2000/svg" fill="none" height="24" style="fill: none" viewBox="0 0 24 24" width="24"><path clip-rule="evenodd" d="M10 2C10 1.44772 10.4477 1 11 1H14C14.5523 1 15 1.44772 15 2C15 4.76142 17.2386 7 20 7C20.5523 7 21 7.44772 21 8V11C21 11.5523 20.5523 12 20 12C18.1792 12 16.471 11.5127 15 10.6619V16C15 19.866 11.866 23 8 23C4.13401 23 1 19.866 1 16C1 12.134 4.13401 9 8 9C8.55228 9 9 9.44772 9 10V13C9 13.5523 8.55228 14 8 14C6.89543 14 6 14.8954 6 16C6 17.1046 6.89543 18 8 18C9.10457 18 10 17.1046 10 16V2ZM12 3V16C12 18.2091 10.2091 20 8 20C5.79086 20 4 18.2091 4 16C4 14.1362 5.27477 12.5701 7 12.126V11.1C4.71776 11.5633 3 13.581 3 16C3 18.7614 5.23858 21 8 21C10.7614 21 13 18.7614 13 16V8.70832C13 8.31391 13.2318 7.95634 13.5919 7.79538C13.952 7.63442 14.373 7.70015 14.6669 7.96318C15.8489 9.02111 17.3455 9.73209 19 9.93818V8.92911C15.9343 8.4906 13.5094 6.06569 13.0709 3H12Z" fill="url(#paint0_linear_1233_4801)" fill-rule="evenodd"/><defs><linearGradient gradientUnits="userSpaceOnUse" id="paint0_linear_1233_4801" x1="11" x2="11" y1="1" y2="23"><stop stop-color="#01145d"/><stop offset="1" stop-color="#01145d"/></linearGradient></defs></svg>